HIERARCHY
ROOT newVegas:Hips
{
	OFFSET 0.000000 96.479958 0.000000
	CHANNELS 6 Xposition Yposition Zposition Xrotation Yrotation Zrotation
	JOINT newVegas:Pelvis
	{
		OFFSET 0.000000 0.000000 0.000000
		CHANNELS 3 Xrotation Yrotation Zrotation
		JOINT newVegas:LeftUpLeg
		{
			OFFSET 18.735201 -5.666702 -4.541200
			CHANNELS 3 Xrotation Yrotation Zrotation
			JOINT newVegas:LeftLeg
			{
				OFFSET -0.021200 -31.938179 0.493100
				CHANNELS 3 Xrotation Yrotation Zrotation
				JOINT newVegas:LeftFoot
				{
					OFFSET 0.021200 -31.938179 -4.336299
					CHANNELS 3 Xrotation Yrotation Zrotation
					JOINT newVegas:LeftToeBase
					{
						OFFSET 0.943001 -26.722000 15.023500
						CHANNELS 3 Xrotation Yrotation Zrotation
						End Site
						{
							OFFSET 0.000000 30.670183 0.000000
						}
					}
				}
				JOINT newVegas:Left_PantLeg
				{
					OFFSET 0.663870 -9.044666 -1.108900
					CHANNELS 3 Xrotation Yrotation Zrotation
					End Site
					{
						OFFSET 1.415995 20.635357 0.000000
					}
				}
			}
		}
		JOINT newVegas:RightUpLeg
		{
			OFFSET -18.735201 -5.666702 -4.541200
			CHANNELS 3 Xrotation Yrotation Zrotation
			JOINT newVegas:RightLeg
			{
				OFFSET 0.018946 -31.938133 0.493100
				CHANNELS 3 Xrotation Yrotation Zrotation
				JOINT newVegas:RightFoot
				{
					OFFSET -0.018946 -31.938126 -4.336299
					CHANNELS 3 Xrotation Yrotation Zrotation
					JOINT newVegas:RightToeBase
					{
						OFFSET -0.943001 -26.722004 15.023500
						CHANNELS 3 Xrotation Yrotation Zrotation
						End Site
						{
							OFFSET 0.000000 30.670187 0.000000
						}
					}
				}
				JOINT newVegas:Right_PantLeg
				{
					OFFSET -0.661674 -9.044716 -1.108900
					CHANNELS 3 Xrotation Yrotation Zrotation
					End Site
					{
						OFFSET -1.415958 20.635269 0.000000
					}
				}
			}
		}
	}
	JOINT newVegas:Spine
	{
		OFFSET 0.000000 10.199997 -0.299500
		CHANNELS 3 Xrotation Yrotation Zrotation
		JOINT newVegas:Spine1
		{
			OFFSET 0.000000 11.900002 -1.516600
			CHANNELS 3 Xrotation Yrotation Zrotation
			JOINT newVegas:Spine2
			{
				OFFSET 0.000000 13.600006 -2.842500
				CHANNELS 3 Xrotation Yrotation Zrotation
				JOINT newVegas:Neck
				{
					OFFSET 0.000000 9.624100 -2.890100
					CHANNELS 3 Xrotation Yrotation Zrotation
					JOINT newVegas:Head
					{
						OFFSET 0.000000 14.068802 -1.351900
						CHANNELS 3 Xrotation Yrotation Zrotation
						JOINT newVegas:Hair_Back
						{
							OFFSET 0.000000 3.231903 -17.524799
							CHANNELS 3 Xrotation Yrotation Zrotation
							End Site
							{
								OFFSET 0.000000 19.849884 0.000000
							}
						}
						JOINT newVegas:Hair_Front
						{
							OFFSET 0.000000 31.260406 4.573800
							CHANNELS 3 Xrotation Yrotation Zrotation
							JOINT newVegas:Hair_Front1
							{
								OFFSET 0.000000 2.284103 11.993300
								CHANNELS 3 Xrotation Yrotation Zrotation
								JOINT newVegas:Hair_Front2
								{
									OFFSET 0.000000 2.284103 11.993300
									CHANNELS 3 Xrotation Yrotation Zrotation
									End Site
									{
										OFFSET 0.000000 12.208862 0.000000
									}
								}
							}
						}
						JOINT newVegas:Jowel
						{
							OFFSET 0.000000 -7.458206 6.864100
							CHANNELS 3 Xrotation Yrotation Zrotation
							End Site
							{
								OFFSET 0.000000 19.849884 0.000000
							}
						}
					}
				}
				JOINT newVegas:LeftShoulder
				{
					OFFSET 15.263000 10.923401 -0.547700
					CHANNELS 3 Xrotation Yrotation Zrotation
					JOINT newVegas:LeftArm
					{
						OFFSET 25.438599 -2.830597 -13.032500
						CHANNELS 3 Xrotation Yrotation Zrotation
						JOINT newVegas:LeftForeArm
						{
							OFFSET 29.960503 0.000000 0.000000
							CHANNELS 3 Xrotation Yrotation Zrotation
							JOINT newVegas:LeftHand
							{
								OFFSET 27.849251 0.000000 0.000000
								CHANNELS 3 Xrotation Yrotation Zrotation
								JOINT newVegas:LeftHandThumb1
								{
									OFFSET 4.487587 -3.305161 6.305391
									CHANNELS 3 Xrotation Yrotation Zrotation
									JOINT newVegas:LeftHandThumb2
									{
										OFFSET 5.480453 -3.164139 3.164143
										CHANNELS 3 Xrotation Yrotation Zrotation
										JOINT newVegas:LeftHandThumb3
										{
											OFFSET 5.159721 -2.978973 2.978967
											CHANNELS 3 Xrotation Yrotation Zrotation
											End Site
											{
												OFFSET 2.494507 5.926697 1.738678
											}
										}
									}
								}
								JOINT newVegas:LeftHandIndex1
								{
									OFFSET 18.578728 -0.527832 5.208049
									CHANNELS 3 Xrotation Yrotation Zrotation
									JOINT newVegas:LeftHandIndex2
									{
										OFFSET 3.192009 0.000000 0.000000
										CHANNELS 3 Xrotation Yrotation Zrotation
										JOINT newVegas:LeftHandIndex3
										{
											OFFSET 3.835129 0.000000 0.000000
											CHANNELS 3 Xrotation Yrotation Zrotation
											End Site
											{
												OFFSET -0.034599 3.816971 0.371180
											}
										}
									}
								}
								JOINT newVegas:LeftHandMiddle1
								{
									OFFSET 18.476105 0.000000 0.000000
									CHANNELS 3 Xrotation Yrotation Zrotation
									JOINT newVegas:LeftHandMiddle2
									{
										OFFSET 3.324875 0.000000 0.000000
										CHANNELS 3 Xrotation Yrotation Zrotation
										JOINT newVegas:LeftHandMiddle3
										{
											OFFSET 4.596550 0.000000 0.000000
											CHANNELS 3 Xrotation Yrotation Zrotation
											End Site
											{
												OFFSET 0.057701 4.578827 0.399218
											}
										}
									}
								}
								JOINT newVegas:LeftHandRing1
								{
									OFFSET 17.732719 0.121887 -4.201567
									CHANNELS 3 Xrotation Yrotation Zrotation
									JOINT newVegas:LeftHandRing2
									{
										OFFSET 2.733170 0.000000 0.000000
										CHANNELS 3 Xrotation Yrotation Zrotation
										JOINT newVegas:LeftHandRing3
										{
											OFFSET 3.178268 0.000000 0.000000
											CHANNELS 3 Xrotation Yrotation Zrotation
											End Site
											{
												OFFSET 0.119102 3.170624 0.185394
											}
										}
									}
								}
								JOINT newVegas:LeftHandPinky1
								{
									OFFSET 15.989624 -0.606689 -7.535461
									CHANNELS 3 Xrotation Yrotation Zrotation
									JOINT newVegas:LeftHandPinky2
									{
										OFFSET 2.538986 0.000000 0.000000
										CHANNELS 3 Xrotation Yrotation Zrotation
										JOINT newVegas:LeftHandPinky3
										{
											OFFSET 2.593102 0.000000 0.000000
											CHANNELS 3 Xrotation Yrotation Zrotation
											End Site
											{
												OFFSET -0.150902 2.584198 0.152708
											}
										}
									}
								}
							}
							JOINT newVegas:Left_Sleeve
							{
								OFFSET 0.267448 -0.649796 0.577675
								CHANNELS 3 Xrotation Yrotation Zrotation
								End Site
								{
									OFFSET 0.000000 15.991241 0.000000
								}
							}
							JOINT newVegas:Left_CapeC
							{
								OFFSET 15.715958 -8.608795 -6.935905
								CHANNELS 3 Xrotation Yrotation Zrotation
								JOINT newVegas:Left_CapeC1
								{
									OFFSET 0.000000 -8.688499 0.000000
									CHANNELS 3 Xrotation Yrotation Zrotation
									End Site
									{
										OFFSET 0.000000 8.688499 0.000000
									}
								}
							}
						}
						JOINT newVegas:Left_CapeB
						{
							OFFSET 26.118385 -8.608795 -7.079235
							CHANNELS 3 Xrotation Yrotation Zrotation
							JOINT newVegas:Left_CapeB1
							{
								OFFSET 0.000000 -8.688499 0.000000
								CHANNELS 3 Xrotation Yrotation Zrotation
								End Site
								{
									OFFSET 0.000000 8.688499 0.000000
								}
							}
						}
						JOINT newVegas:Left_CapeA
						{
							OFFSET 5.115639 -8.608795 -10.395809
							CHANNELS 3 Xrotation Yrotation Zrotation
							JOINT newVegas:Left_CapeA1
							{
								OFFSET 0.000000 -8.688499 0.000000
								CHANNELS 3 Xrotation Yrotation Zrotation
								End Site
								{
									OFFSET 0.000000 8.688499 0.000000
								}
							}
						}
					}
				}
				JOINT newVegas:RightShoulder
				{
					OFFSET -15.263000 10.923401 -0.547700
					CHANNELS 3 Xrotation Yrotation Zrotation
					JOINT newVegas:RightArm
					{
						OFFSET -25.438599 -2.830597 -13.032500
						CHANNELS 3 Xrotation Yrotation Zrotation
						JOINT newVegas:RightForeArm
						{
							OFFSET -29.960503 0.000000 0.000000
							CHANNELS 3 Xrotation Yrotation Zrotation
							JOINT newVegas:RightHand
							{
								OFFSET -27.849251 0.000000 0.000000
								CHANNELS 3 Xrotation Yrotation Zrotation
								JOINT newVegas:RightHandThumb1
								{
									OFFSET -4.487587 -3.305161 6.305391
									CHANNELS 3 Xrotation Yrotation Zrotation
									JOINT newVegas:RightHandThumb2
									{
										OFFSET -5.480453 -3.164139 3.164143
										CHANNELS 3 Xrotation Yrotation Zrotation
										JOINT newVegas:RightHandThumb3
										{
											OFFSET -5.159721 -2.978973 2.978967
											CHANNELS 3 Xrotation Yrotation Zrotation
											End Site
											{
												OFFSET -2.494507 5.926697 1.738678
											}
										}
									}
								}
								JOINT newVegas:RightHandIndex1
								{
									OFFSET -18.578728 -0.527832 5.208049
									CHANNELS 3 Xrotation Yrotation Zrotation
									JOINT newVegas:RightHandIndex2
									{
										OFFSET -3.192009 0.000000 0.000000
										CHANNELS 3 Xrotation Yrotation Zrotation
										JOINT newVegas:RightHandIndex3
										{
											OFFSET -3.835129 0.000000 0.000000
											CHANNELS 3 Xrotation Yrotation Zrotation
											End Site
											{
												OFFSET 0.034599 3.816971 0.371180
											}
										}
									}
								}
								JOINT newVegas:RightHandMiddle1
								{
									OFFSET -18.476105 0.000000 0.000000
									CHANNELS 3 Xrotation Yrotation Zrotation
									JOINT newVegas:RightHandMiddle2
									{
										OFFSET -3.324875 0.000000 0.000000
										CHANNELS 3 Xrotation Yrotation Zrotation
										JOINT newVegas:RightHandMiddle3
										{
											OFFSET -4.596550 0.000000 0.000000
											CHANNELS 3 Xrotation Yrotation Zrotation
											End Site
											{
												OFFSET -0.057701 4.578827 0.399218
											}
										}
									}
								}
								JOINT newVegas:RightHandRing1
								{
									OFFSET -17.732719 0.121887 -4.201567
									CHANNELS 3 Xrotation Yrotation Zrotation
									JOINT newVegas:RightHandRing2
									{
										OFFSET -2.733170 0.000000 0.000000
										CHANNELS 3 Xrotation Yrotation Zrotation
										JOINT newVegas:RightHandRing3
										{
											OFFSET -3.178268 0.000000 0.000000
											CHANNELS 3 Xrotation Yrotation Zrotation
											End Site
											{
												OFFSET -0.119102 3.170624 0.185394
											}
										}
									}
								}
								JOINT newVegas:RightHandPinky1
								{
									OFFSET -15.989624 -0.606689 -7.535461
									CHANNELS 3 Xrotation Yrotation Zrotation
									JOINT newVegas:RightHandPinky2
									{
										OFFSET -2.538986 0.000000 0.000000
										CHANNELS 3 Xrotation Yrotation Zrotation
										JOINT newVegas:RightHandPinky3
										{
											OFFSET -2.593102 0.000000 0.000000
											CHANNELS 3 Xrotation Yrotation Zrotation
											End Site
											{
												OFFSET 0.150902 2.584198 0.152708
											}
										}
									}
								}
							}
							JOINT newVegas:Right_CapeC
							{
								OFFSET -15.715958 -8.608795 -6.935905
								CHANNELS 3 Xrotation Yrotation Zrotation
								JOINT newVegas:Right_CapeC1
								{
									OFFSET 0.000000 -8.688499 0.000000
									CHANNELS 3 Xrotation Yrotation Zrotation
									End Site
									{
										OFFSET 0.000000 8.688499 0.000000
									}
								}
							}
							JOINT newVegas:Right_Sleeve
							{
								OFFSET -0.267448 -0.649994 0.577675
								CHANNELS 3 Xrotation Yrotation Zrotation
								End Site
								{
									OFFSET 0.000000 15.991302 0.000000
								}
							}
						}
						JOINT newVegas:Right_CapeA
						{
							OFFSET -5.115540 -8.608795 -10.395824
							CHANNELS 3 Xrotation Yrotation Zrotation
							JOINT newVegas:Right_CapeA1
							{
								OFFSET 0.000000 -8.688499 0.000000
								CHANNELS 3 Xrotation Yrotation Zrotation
								End Site
								{
									OFFSET 0.000000 8.688499 0.000000
								}
							}
						}
						JOINT newVegas:Right_CapeB
						{
							OFFSET -26.118187 -8.608795 -7.079266
							CHANNELS 3 Xrotation Yrotation Zrotation
							JOINT newVegas:Right_CapeB1
							{
								OFFSET 0.000000 -8.688499 0.000000
								CHANNELS 3 Xrotation Yrotation Zrotation
								End Site
								{
									OFFSET 0.000000 8.688499 0.000000
								}
							}
						}
					}
				}
				JOINT newVegas:Left_Collar
				{
					OFFSET 18.625099 8.655502 8.828100
					CHANNELS 3 Xrotation Yrotation Zrotation
					JOINT newVegas:Left_Collar1
					{
						OFFSET 14.783401 10.540405 -1.259500
						CHANNELS 3 Xrotation Yrotation Zrotation
						End Site
						{
							OFFSET 0.000000 18.199875 0.000000
						}
					}
				}
				JOINT newVegas:Collar_Back
				{
					OFFSET 0.000000 15.630707 -20.132601
					CHANNELS 3 Xrotation Yrotation Zrotation
					End Site
					{
						OFFSET 0.000000 22.523010 0.000000
					}
				}
				JOINT newVegas:Left_Peck
				{
					OFFSET 17.239599 -5.132599 25.482599
					CHANNELS 3 Xrotation Yrotation Zrotation
					End Site
					{
						OFFSET 0.000000 22.523010 0.000000
					}
				}
				JOINT newVegas:Right_Peck
				{
					OFFSET -17.239599 -5.132202 25.482599
					CHANNELS 3 Xrotation Yrotation Zrotation
					End Site
					{
						OFFSET 0.000000 22.523010 0.000000
					}
				}
				JOINT newVegas:Right_Collar
				{
					OFFSET -18.625099 8.655792 8.828100
					CHANNELS 3 Xrotation Yrotation Zrotation
					JOINT newVegas:Right_Collar1
					{
						OFFSET -14.783401 10.539993 -1.259500
						CHANNELS 3 Xrotation Yrotation Zrotation
						End Site
						{
							OFFSET 0.000000 18.199631 0.000000
						}
					}
				}
			}
		}
		JOINT newVegas:Belly
		{
			OFFSET 0.000000 -6.540398 9.014299
			CHANNELS 3 Xrotation Yrotation Zrotation
			End Site
			{
				OFFSET 0.000000 11.566666 0.000000
			}
		}
	}
	JOINT newVegas:ElvisFacialAnim_Joint
	{
		OFFSET 1.000000 -95.330101 -8.825800
		CHANNELS 3 Xrotation Yrotation Zrotation
		End Site
		{
			OFFSET 0.000000 35.315800 0.000000
		}
	}
}
MOTION
Frames: 4
Frame Time: 0.033333
-2.734658 86.050102 1.295052 24.334987 -66.795145 19.399687 0.000000 0.000001 -0.000000 -63.328845 7.190902 15.191317 84.903657 -1.403608 -3.170635 13.446773 0.143049 1.565727 0.000001 -0.000002 0.000000 0.000002 -0.000004 0.000001 -48.828988 -3.733182 11.775876 45.984880 -2.330592 -1.412438 -5.964332 1.571266 -7.775970 0.000000 0.000003 -0.000000 0.000000 0.000001 -0.000000 15.066982 -0.276677 -4.296520 5.802040 0.581294 -2.760238 5.799435 0.659611 -2.815745 -0.730689 0.313746 0.697305 -0.730689 0.313774 0.697301 -0.000000 0.000000 -0.000000 -0.730684 0.313756 0.697300 -0.730691 0.313805 0.697286 0.000001 -0.000001 -0.000001 -0.000000 0.000000 -0.000001 1.828118 -3.192738 -12.271534 -38.780069 26.553440 -34.973577 0.428827 -47.474569 0.420411 -10.628035 0.181283 0.461804 40.109917 -15.297141 -0.360495 5.639811 28.097848 11.338801 0.000001 -0.000002 -0.000003 6.882265 2.840027 -61.140404 8.247999 7.640054 -89.897830 -0.000003 0.000002 0.000002 -2.345564 4.688825 -62.655258 8.754150 9.897138 -87.051321 0.000000 -0.000001 -0.000002 -9.042500 10.045683 -60.766192 8.524107 9.508807 -66.893076 -0.000004 0.000006 -0.000001 -17.946962 14.755061 -51.485881 8.868476 8.667013 -84.812003 0.000001 -0.000005 -0.000002 -0.000000 0.000002 0.000000 -0.000000 0.000002 0.000000 -0.000001 0.000002 0.000000 -0.000002 0.000001 -0.000000 -0.000001 -0.000000 -0.000003 -0.000002 0.000001 -0.000000 -0.000002 0.000001 -0.000000 0.631539 7.257330 8.703744 8.866242 -9.967348 53.153963 -23.534699 37.251466 18.881877 -27.808577 9.696843 -18.936003 -2.346182 -6.100489 10.731449 2.364036 -23.806341 -8.771090 0.000002 0.000000 -0.000002 -0.054767 0.532111 0.738701 0.019732 -0.087335 5.078559 -0.000001 0.000002 -0.000002 0.348252 -5.918515 2.583802 1.432581 -4.204214 24.052077 0.000000 0.000001 -0.000001 1.205815 -11.756031 4.154753 1.794835 -3.771854 26.865415 0.000000 0.000001 0.000001 2.126199 -19.166843 11.319906 3.354769 -2.122191 18.828537 -0.000000 0.000003 0.000002 0.000001 0.000000 -0.000003 0.000001 0.000000 -0.000003 0.000001 0.000000 -0.000001 0.000001 0.000002 0.000001 0.000001 0.000003 0.000001 0.000001 0.000002 0.000001 0.000001 0.000003 0.000003 -0.000000 -0.000000 -0.000001 -0.000000 -0.000000 -0.000001 -0.000000 -0.000000 -0.000001 -0.000000 -0.000000 -0.000001 -0.000000 -0.000000 -0.000001 -0.000000 -0.000000 -0.000001 -0.000000 -0.000000 -0.000001 0.000001 0.000000 0.000000 0.000000 0.000001 -0.000000 
-2.948557 86.632065 4.562365 24.319273 -66.613257 19.487083 -0.000001 0.000001 0.000000 -64.288240 1.320822 17.797760 83.781177 -1.129974 -3.172588 11.564865 0.026267 -0.568651 0.000003 0.000002 -0.000002 0.000003 -0.000002 0.000002 -47.940183 -0.831892 9.744427 46.505969 -2.864424 -1.449630 -7.897879 1.127555 -4.426947 -0.000000 0.000003 -0.000000 0.000000 0.000001 -0.000001 14.676724 -0.109858 -4.854366 5.805884 0.647224 -3.000248 5.813840 0.725261 -3.071634 -0.703744 0.269954 0.724109 -0.703764 0.269897 0.724136 -0.000000 0.000000 -0.000000 -0.703771 0.269952 0.724115 -0.703744 0.269886 0.724132 0.000001 0.000000 0.000001 -0.000000 0.000000 -0.000000 1.859080 -2.949729 -12.034355 -39.139166 24.879316 -34.415684 0.424416 -46.990926 0.400283 -10.742265 0.581347 0.709759 40.109924 -15.297141 -0.360492 5.639810 28.097844 11.338809 0.000002 0.000000 -0.000003 6.882266 2.840027 -61.140411 8.248000 7.640053 -89.897830 -0.000002 -0.000000 -0.000000 -2.345565 4.688824 -62.655258 8.754150 9.897134 -87.051328 -0.000003 0.000002 -0.000001 -9.042499 10.045682 -60.766199 8.524105 9.508802 -66.893083 0.000001 0.000001 -0.000003 -17.946964 14.755056 -51.485887 8.868476 8.667006 -84.812009 0.000003 -0.000007 0.000003 -0.000001 0.000002 -0.000000 -0.000001 0.000002 -0.000000 -0.000002 0.000002 0.000000 0.000004 0.000002 0.000003 0.000004 0.000002 0.000002 0.000004 0.000002 0.000003 0.000003 0.000003 0.000003 0.480290 6.910816 9.116054 9.613493 -10.152745 53.963839 -22.828058 37.382920 18.377536 -28.102564 10.248654 -18.005745 -2.346182 -6.100491 10.731448 2.364038 -23.806344 -8.771086 0.000000 -0.000000 -0.000000 -0.064704 0.512187 0.798625 0.020504 -0.095636 5.135865 0.000000 0.000002 -0.000000 0.351442 -5.929150 2.654863 1.436696 -4.213428 24.126999 0.000000 -0.000001 -0.000001 1.224898 -11.754147 4.248371 1.804805 -3.785280 26.968865 -0.000000 0.000001 0.000000 2.149901 -19.163424 11.516672 3.366692 -2.138287 18.982634 0.000001 0.000003 -0.000000 0.000000 0.000001 -0.000002 0.000000 0.000000 0.000001 0.000000 0.000001 -0.000000 -0.000003 0.000000 -0.000000 -0.000002 0.000001 -0.000001 -0.000003 0.000000 -0.000000 -0.000002 0.000001 0.000001 0.000001 0.000000 -0.000001 0.000001 0.000000 -0.000001 0.000001 0.000000 -0.000001 0.000001 0.000000 -0.000001 0.000001 0.000000 -0.000001 0.000001 0.000000 -0.000001 0.000001 0.000000 -0.000001 0.000002 0.000002 -0.000001 -0.000001 0.000001 0.000000 
-3.194746 87.050240 8.155029 24.042375 -66.544621 19.333537 0.000000 0.000002 -0.000000 -63.180309 -4.017447 20.164026 78.999819 -0.886906 -3.156349 11.349777 0.004210 -2.734639 -0.000001 -0.000000 0.000001 0.000002 -0.000002 0.000000 -46.582085 1.885344 7.409942 47.103781 -1.736813 -1.351704 -10.009057 -0.665650 -1.370272 0.000000 0.000001 0.000000 0.000002 -0.000000 -0.000001 14.360042 0.098006 -5.288204 5.800952 0.679778 -3.259672 5.814411 0.752155 -3.315390 -0.673873 0.228995 0.754592 -0.673839 0.229004 0.754585 0.000000 -0.000001 0.000002 -0.673865 0.229010 0.754584 -0.673916 0.228964 0.754599 -0.000000 0.000000 0.000002 0.000000 -0.000001 0.000002 1.839298 -2.691145 -11.508502 -39.003611 23.849605 -34.481332 0.421389 -46.797864 0.396157 -10.667015 0.713718 1.099227 40.109924 -15.297138 -0.360494 5.639811 28.097844 11.338806 -0.000000 0.000000 -0.000001 6.882266 2.840029 -61.140411 8.247997 7.640054 -89.897830 -0.000001 0.000002 0.000003 -2.345565 4.688830 -62.655258 8.754148 9.897137 -87.051328 -0.000003 0.000001 -0.000000 -9.042501 10.045689 -60.766192 8.524106 9.508807 -66.893076 -0.000002 -0.000001 0.000002 -17.946961 14.755066 -51.485887 8.868475 8.667010 -84.812009 -0.000001 -0.000003 -0.000001 0.000003 -0.000002 0.000000 0.000003 -0.000002 0.000000 0.000002 -0.000001 0.000000 -0.000002 -0.000002 0.000000 -0.000001 -0.000003 -0.000000 -0.000002 -0.000002 0.000000 -0.000003 -0.000002 0.000000 0.373340 6.581439 9.474978 10.365345 -10.369329 54.706472 -22.315691 37.194601 17.931323 -28.221626 10.771600 -17.226217 -2.346181 -6.100492 10.731453 2.364038 -23.806341 -8.771095 0.000001 -0.000001 0.000001 -0.082799 0.436077 1.028223 0.023599 -0.127541 5.356530 -0.000000 0.000001 0.000004 0.363876 -5.969969 2.926535 1.451976 -4.247338 24.376143 0.000001 0.000001 -0.000000 1.285717 -11.735770 4.572713 1.827383 -3.824677 27.253512 0.000001 0.000001 -0.000001 2.242849 -19.139035 11.932282 3.385248 -2.175315 19.314542 0.000001 0.000005 0.000001 0.000000 0.000001 0.000002 -0.000000 0.000001 0.000003 0.000002 0.000002 0.000003 0.000000 0.000002 -0.000000 0.000000 0.000003 -0.000001 0.000000 0.000002 -0.000000 0.000001 0.000003 0.000001 -0.000003 0.000001 -0.000000 -0.000003 0.000001 -0.000000 -0.000003 0.000001 -0.000000 -0.000003 0.000001 -0.000000 -0.000003 0.000001 -0.000000 -0.000003 0.000001 -0.000000 -0.000003 0.000001 -0.000000 -0.000002 0.000001 -0.000000 0.000000 0.000002 -0.000000 
-3.445020 87.179939 11.835227 23.574523 -66.553063 18.998438 0.000001 -0.000000 0.000000 -60.309273 -8.255715 22.445151 72.161727 -0.122336 -3.046572 10.706481 0.013224 -4.295779 -0.000003 0.000003 -0.000003 0.000001 -0.000000 -0.000000 -45.039347 4.321504 4.835607 47.915611 -1.485102 -1.325476 -12.275800 -1.361967 1.872992 0.000000 0.000000 -0.000000 0.000001 -0.000001 0.000000 14.283941 0.308584 -5.651985 5.850378 0.698154 -3.545559 5.870300 0.760971 -3.585376 -0.644980 0.188732 0.786896 -0.644979 0.188708 0.786898 -0.000003 0.000001 -0.000002 -0.644964 0.188718 0.786900 -0.644982 0.188755 0.786885 -0.000002 -0.000001 0.000001 -0.000003 0.000001 -0.000003 1.773446 -2.429984 -10.791908 -38.977837 23.059485 -34.738718 0.416459 -46.669388 0.391900 -10.536981 0.699584 1.431379 40.109927 -15.297141 -0.360492 5.639813 28.097848 11.338807 0.000002 -0.000003 0.000002 6.882265 2.840026 -61.140411 8.247996 7.640054 -89.897830 0.000002 -0.000002 0.000001 -2.345568 4.688829 -62.655258 8.754150 9.897140 -87.051328 0.000001 0.000000 -0.000002 -9.042501 10.045684 -60.766192 8.524109 9.508803 -66.893083 -0.000001 0.000001 -0.000001 -17.946964 14.755061 -51.485884 8.868469 8.667011 -84.812003 -0.000000 -0.000003 0.000001 0.000003 0.000001 0.000001 0.000003 0.000001 0.000001 0.000002 0.000001 0.000001 0.000003 -0.000002 -0.000000 0.000003 -0.000002 -0.000003 0.000003 -0.000002 -0.000000 0.000002 -0.000001 -0.000000 0.305626 6.281687 9.784268 10.805179 -10.612249 55.443227 -21.949380 36.758162 17.538088 -28.246782 11.225731 -16.662511 -2.346184 -6.100493 10.731450 2.364039 -23.806346 -8.771089 0.000001 -0.000001 0.000001 -0.110552 0.316487 1.389259 0.028984 -0.177849 5.704204 -0.000001 -0.000001 -0.000001 0.373975 -6.034158 3.350907 1.476235 -4.300464 24.767219 0.000000 0.000001 -0.000001 1.374949 -11.706855 5.077334 1.863069 -3.886002 27.698347 -0.000001 -0.000001 0.000000 2.385364 -19.099929 12.574079 3.414516 -2.232591 19.830037 0.000001 0.000002 -0.000000 0.000003 -0.000000 0.000001 0.000003 -0.000001 0.000000 0.000004 0.000001 0.000002 -0.000001 0.000002 0.000001 -0.000001 0.000002 -0.000001 -0.000001 0.000002 0.000001 -0.000001 0.000003 0.000001 0.000002 0.000003 -0.000002 0.000002 0.000003 -0.000002 0.000002 0.000003 -0.000002 0.000002 0.000003 -0.000002 0.000002 0.000003 -0.000002 0.000002 0.000003 -0.000002 0.000002 0.000003 -0.000002 -0.000000 -0.000001 0.000001 0.000001 -0.000000 0.000000 
